  0
SECTION
  2
HEADER
  9
$ACADVER
  1
AC1014
  9
$HANDSEED
  5
FFFF
  9
$MEASUREMENT
 70
     1
  0
ENDSEC
  0
SECTION
  2
TABLES
  0
TABLE
  2
VPORT
  5
8
330
0
100
AcDbSymbolTable
 70
     4
  0
VPORT
  5
2E
330
8
100
AcDbSymbolTableRecord
100
AcDbViewportTableRecord
  2
*ACTIVE
 70
     0
 10
0.0
 20
0.0
 11
1.0
 21
1.0
 12
210.0
 22
148.5
 13
0.0
 23
0.0
 14
10.0
 24
10.0
 15
10.0
 25
10.0
 16
0.0
 26
0.0
 36
1.0
 17
0.0
 27
0.0
 37
0.0
 40
341.0
 41
1.24
 42
50.0
 43
0.0
 44
0.0
 50
0.0
 51
0.0
 71
     0
 72
   100
 73
     1
 74
     3
 75
     0
 76
     0
 77
     0
 78
     0
  0
ENDTAB
  0
TABLE
  2
LTYPE
  5
5
330
0
100
AcDbSymbolTable
 70
     1
  0
LTYPE
  5
14
330
5
100
AcDbSymbolTableRecord
100
AcDbLinetypeTableRecord
  2
BYBLOCK
 70
     0
  3

 72
    65
 73
     0
 40
0.0
  0
LTYPE
  5
15
330
5
100
AcDbSymbolTableRecord
100
AcDbLinetypeTableRecord
  2
BYLAYER
 70
     0
  3

 72
    65
 73
     0
 40
0.0
  0
LTYPE
  5
16
330
5
100
AcDbSymbolTableRecord
100
AcDbLinetypeTableRecord
  2
CONTINUOUS
 70
     0
  3
Solid line
 72
    65
 73
     0
 40
0.0
  0
ENDTAB
  0
TABLE
  2
LAYER
  5
2
100
AcDbSymbolTable
 70
2
  0
LAYER
  5
50
100
AcDbSymbolTableRecord
100
AcDbLayerTableRecord
  2
0
 70
0
  6
CONTINUOUS
  0
LAYER
  5
51
100
AcDbSymbolTableRecord
100
AcDbLayerTableRecord
  2
Layer_1
 70
0
  6
CONTINUOUS
  0
ENDTAB
  0
TABLE
  2
STYLE
  5
3
330
0
100
AcDbSymbolTable
 70
     1
  0
STYLE
  5
11
330
3
100
AcDbSymbolTableRecord
100
AcDbTextStyleTableRecord
  2
STANDARD
 70
     0
 40
0.0
 41
1.0
 50
0.0
 71
     0
 42
2.5
  3
txt
  4

  0
ENDTAB
  0
TABLE
  2
VIEW
  5
6
330
0
100
AcDbSymbolTable
 70
     0
  0
ENDTAB
  0
TABLE
  2
UCS
  5
7
330
0
100
AcDbSymbolTable
 70
     0
  0
ENDTAB
  0
TABLE
  2
APPID
  5
9
330
0
100
AcDbSymbolTable
 70
     2
  0
APPID
  5
12
330
9
100
AcDbSymbolTableRecord
100
AcDbRegAppTableRecord
  2
ACAD
 70
     0
  0
ENDTAB
  0
TABLE
  2
DIMSTYLE
  5
A
330
0
100
AcDbSymbolTable
 70
     1
  0
DIMSTYLE
105
27
330
A
100
AcDbSymbolTableRecord
100
AcDbDimStyleTableRecord
  2
ISO-25
 70
     0
  3

  4

  5

  6

  7

 40
1.0
 41
2.5
 42
0.625
 43
3.75
 44
1.25
 45
0.0
 46
0.0
 47
0.0
 48
0.0
140
2.5
141
2.5
142
0.0
143
0.03937007874016
144
1.0
145
0.0
146
1.0
147
0.625
 71
     0
 72
     0
 73
     0
 74
     0
 75
     0
 76
     0
 77
     1
 78
     8
170
     0
171
     3
172
     1
173
     0
174
     0
175
     0
176
     0
177
     0
178
     0
270
     2
271
     2
272
     2
273
     2
274
     3
340
11
275
     0
280
     0
281
     0
282
     0
283
     0
284
     8
285
     0
286
     0
287
     3
288
     0
  0
ENDTAB
  0
TABLE
  2
BLOCK_RECORD
  5
1
330
0
100
AcDbSymbolTable
 70
     1
  0
BLOCK_RECORD
  5
1F
330
1
100
AcDbSymbolTableRecord
100
AcDbBlockTableRecord
  2
*MODEL_SPACE
  0
BLOCK_RECORD
  5
1B
330
1
100
AcDbSymbolTableRecord
100
AcDbBlockTableRecord
  2
*PAPER_SPACE
  0
ENDTAB
  0
ENDSEC
  0
SECTION
  2
BLOCKS
  0
BLOCK
  5
20
330
1F
100
AcDbEntity
  8
0
100
AcDbBlockBegin
  2
*MODEL_SPACE
 70
     0
 10
0.0
 20
0.0
 30
0.0
  3
*MODEL_SPACE
  1

  0
ENDBLK
  5
21
330
1F
100
AcDbEntity
  8
0
100
AcDbBlockEnd
  0
BLOCK
  5
1C
330
1B
100
AcDbEntity
 67
     1
  8
0
100
AcDbBlockBegin
  2
*PAPER_SPACE
  1

  0
ENDBLK
  5
1D
330
1B
100
AcDbEntity
 67
     1
  8
0
100
AcDbBlockEnd
  0
ENDSEC
  0
SECTION
  2
ENTITIES
  0
SPLINE
  5
100
100
AcDbEntity
  8
Layer_1
 62
7
100
AcDbSpline
 70
8
 71
3
 72
8
 73
4
 74
0
 40
0
 40
0
 40
0
 40
0
 40
1
 40
1
 40
1
 40
1
 10
-1.769792
 20
-1.054600
 30
0.0
 10
-1.769792
 20
-1.022621
 30
0.0
 10
-1.786852
 20
-0.993070
 30
0.0
 10
-1.814548
 20
-0.977080
 30
0.0
  0
SPLINE
  5
101
100
AcDbEntity
  8
Layer_1
 62
7
100
AcDbSpline
 70
8
 71
3
 72
8
 73
4
 74
0
 40
0
 40
0
 40
0
 40
0
 40
1
 40
1
 40
1
 40
1
 10
-1.814548
 20
-0.977080
 30
0.0
 10
-1.842243
 20
-0.961090
 30
0.0
 10
-1.876365
 20
-0.961090
 30
0.0
 10
-1.904060
 20
-0.977080
 30
0.0
  0
SPLINE
  5
102
100
AcDbEntity
  8
Layer_1
 62
7
100
AcDbSpline
 70
8
 71
3
 72
8
 73
4
 74
0
 40
0
 40
0
 40
0
 40
0
 40
1
 40
1
 40
1
 40
1
 10
-1.904060
 20
-0.977080
 30
0.0
 10
-1.931755
 20
-0.993070
 30
0.0
 10
-1.948816
 20
-1.022621
 30
0.0
 10
-1.948816
 20
-1.054600
 30
0.0
  0
SPLINE
  5
103
100
AcDbEntity
  8
Layer_1
 62
7
100
AcDbSpline
 70
8
 71
3
 72
8
 73
4
 74
0
 40
0
 40
0
 40
0
 40
0
 40
1
 40
1
 40
1
 40
1
 10
-1.948816
 20
-1.054600
 30
0.0
 10
-1.948816
 20
-1.086580
 30
0.0
 10
-1.931755
 20
-1.116130
 30
0.0
 10
-1.904060
 20
-1.132120
 30
0.0
  0
SPLINE
  5
104
100
AcDbEntity
  8
Layer_1
 62
7
100
AcDbSpline
 70
8
 71
3
 72
8
 73
4
 74
0
 40
0
 40
0
 40
0
 40
0
 40
1
 40
1
 40
1
 40
1
 10
-1.904060
 20
-1.132120
 30
0.0
 10
-1.876365
 20
-1.148110
 30
0.0
 10
-1.842243
 20
-1.148110
 30
0.0
 10
-1.814548
 20
-1.132120
 30
0.0
  0
SPLINE
  5
105
100
AcDbEntity
  8
Layer_1
 62
7
100
AcDbSpline
 70
8
 71
3
 72
8
 73
4
 74
0
 40
0
 40
0
 40
0
 40
0
 40
1
 40
1
 40
1
 40
1
 10
-1.814548
 20
-1.132120
 30
0.0
 10
-1.786852
 20
-1.116130
 30
0.0
 10
-1.769792
 20
-1.086580
 30
0.0
 10
-1.769792
 20
-1.054600
 30
0.0
  0
SPLINE
  5
106
100
AcDbEntity
  8
Layer_1
 62
7
100
AcDbSpline
 70
8
 71
3
 72
8
 73
4
 74
0
 40
0
 40
0
 40
0
 40
0
 40
1
 40
1
 40
1
 40
1
 10
0.094911
 20
2.175160
 30
0.0
 10
0.094911
 20
2.207140
 30
0.0
 10
0.077850
 20
2.236690
 30
0.0
 10
0.050155
 20
2.252680
 30
0.0
  0
SPLINE
  5
107
100
AcDbEntity
  8
Layer_1
 62
7
100
AcDbSpline
 70
8
 71
3
 72
8
 73
4
 74
0
 40
0
 40
0
 40
0
 40
0
 40
1
 40
1
 40
1
 40
1
 10
0.050155
 20
2.252680
 30
0.0
 10
0.022460
 20
2.268670
 30
0.0
 10
-0.011662
 20
2.268670
 30
0.0
 10
-0.039357
 20
2.252680
 30
0.0
  0
SPLINE
  5
108
100
AcDbEntity
  8
Layer_1
 62
7
100
AcDbSpline
 70
8
 71
3
 72
8
 73
4
 74
0
 40
0
 40
0
 40
0
 40
0
 40
1
 40
1
 40
1
 40
1
 10
-0.039357
 20
2.252680
 30
0.0
 10
-0.067052
 20
2.236690
 30
0.0
 10
-0.084113
 20
2.207140
 30
0.0
 10
-0.084113
 20
2.175160
 30
0.0
  0
SPLINE
  5
109
100
AcDbEntity
  8
Layer_1
 62
7
100
AcDbSpline
 70
8
 71
3
 72
8
 73
4
 74
0
 40
0
 40
0
 40
0
 40
0
 40
1
 40
1
 40
1
 40
1
 10
-0.084113
 20
2.175160
 30
0.0
 10
-0.084113
 20
2.143180
 30
0.0
 10
-0.067052
 20
2.113630
 30
0.0
 10
-0.039357
 20
2.097640
 30
0.0
  0
SPLINE
  5
10a
100
AcDbEntity
  8
Layer_1
 62
7
100
AcDbSpline
 70
8
 71
3
 72
8
 73
4
 74
0
 40
0
 40
0
 40
0
 40
0
 40
1
 40
1
 40
1
 40
1
 10
-0.039357
 20
2.097640
 30
0.0
 10
-0.011662
 20
2.081650
 30
0.0
 10
0.022460
 20
2.081650
 30
0.0
 10
0.050155
 20
2.097640
 30
0.0
  0
SPLINE
  5
10b
100
AcDbEntity
  8
Layer_1
 62
7
100
AcDbSpline
 70
8
 71
3
 72
8
 73
4
 74
0
 40
0
 40
0
 40
0
 40
0
 40
1
 40
1
 40
1
 40
1
 10
0.050155
 20
2.097640
 30
0.0
 10
0.077850
 20
2.113630
 30
0.0
 10
0.094911
 20
2.143180
 30
0.0
 10
0.094911
 20
2.175160
 30
0.0
  0
LWPOLYLINE
  5
10c
100
AcDbEntity
  8
Layer_1
 62
7
100
AcDbPolyline
 90
1
 70
1
 10
-1.769792
 20
-1.054600
 30
0.0
  0
SPLINE
  5
10d
100
AcDbEntity
  8
Layer_1
 62
7
100
AcDbSpline
 70
8
 71
3
 72
8
 73
4
 74
0
 40
0
 40
0
 40
0
 40
0
 40
1
 40
1
 40
1
 40
1
 10
1.959614
 20
-1.054600
 30
0.0
 10
1.959614
 20
-1.022621
 30
0.0
 10
1.942553
 20
-0.993070
 30
0.0
 10
1.914858
 20
-0.977080
 30
0.0
  0
SPLINE
  5
10e
100
AcDbEntity
  8
Layer_1
 62
7
100
AcDbSpline
 70
8
 71
3
 72
8
 73
4
 74
0
 40
0
 40
0
 40
0
 40
0
 40
1
 40
1
 40
1
 40
1
 10
1.914858
 20
-0.977080
 30
0.0
 10
1.887163
 20
-0.961090
 30
0.0
 10
1.853041
 20
-0.961090
 30
0.0
 10
1.825346
 20
-0.977080
 30
0.0
  0
SPLINE
  5
10f
100
AcDbEntity
  8
Layer_1
 62
7
100
AcDbSpline
 70
8
 71
3
 72
8
 73
4
 74
0
 40
0
 40
0
 40
0
 40
0
 40
1
 40
1
 40
1
 40
1
 10
1.825346
 20
-0.977080
 30
0.0
 10
1.797651
 20
-0.993070
 30
0.0
 10
1.780590
 20
-1.022621
 30
0.0
 10
1.780590
 20
-1.054600
 30
0.0
  0
SPLINE
  5
110
100
AcDbEntity
  8
Layer_1
 62
7
100
AcDbSpline
 70
8
 71
3
 72
8
 73
4
 74
0
 40
0
 40
0
 40
0
 40
0
 40
1
 40
1
 40
1
 40
1
 10
1.780590
 20
-1.054600
 30
0.0
 10
1.780590
 20
-1.086580
 30
0.0
 10
1.797651
 20
-1.116130
 30
0.0
 10
1.825346
 20
-1.132120
 30
0.0
  0
SPLINE
  5
111
100
AcDbEntity
  8
Layer_1
 62
7
100
AcDbSpline
 70
8
 71
3
 72
8
 73
4
 74
0
 40
0
 40
0
 40
0
 40
0
 40
1
 40
1
 40
1
 40
1
 10
1.825346
 20
-1.132120
 30
0.0
 10
1.853041
 20
-1.148110
 30
0.0
 10
1.887163
 20
-1.148110
 30
0.0
 10
1.914858
 20
-1.132120
 30
0.0
  0
SPLINE
  5
112
100
AcDbEntity
  8
Layer_1
 62
7
100
AcDbSpline
 70
8
 71
3
 72
8
 73
4
 74
0
 40
0
 40
0
 40
0
 40
0
 40
1
 40
1
 40
1
 40
1
 10
1.914858
 20
-1.132120
 30
0.0
 10
1.942553
 20
-1.116130
 30
0.0
 10
1.959614
 20
-1.086580
 30
0.0
 10
1.959614
 20
-1.054600
 30
0.0
  0
LWPOLYLINE
  5
113
100
AcDbEntity
  8
Layer_1
 62
7
100
AcDbPolyline
 90
1
 70
1
 10
0.094911
 20
2.175160
 30
0.0
  0
SPLINE
  5
114
100
AcDbEntity
  8
Layer_1
 62
7
100
AcDbSpline
 70
8
 71
3
 72
8
 73
4
 74
0
 40
0
 40
0
 40
0
 40
0
 40
1
 40
1
 40
1
 40
1
 10
-1.017673
 20
-0.837738
 30
0.0
 10
-1.017669
 20
-0.805756
 30
0.0
 10
-1.034729
 20
-0.776202
 30
0.0
 10
-1.062426
 20
-0.760210
 30
0.0
  0
SPLINE
  5
115
100
AcDbEntity
  8
Layer_1
 62
7
100
AcDbSpline
 70
8
 71
3
 72
8
 73
4
 74
0
 40
0
 40
0
 40
0
 40
0
 40
1
 40
1
 40
1
 40
1
 10
-1.062426
 20
-0.760210
 30
0.0
 10
-1.090123
 20
-0.744218
 30
0.0
 10
-1.124247
 20
-0.744218
 30
0.0
 10
-1.151944
 20
-0.760210
 30
0.0
  0
SPLINE
  5
116
100
AcDbEntity
  8
Layer_1
 62
7
100
AcDbSpline
 70
8
 71
3
 72
8
 73
4
 74
0
 40
0
 40
0
 40
0
 40
0
 40
1
 40
1
 40
1
 40
1
 10
-1.151944
 20
-0.760210
 30
0.0
 10
-1.179641
 20
-0.776202
 30
0.0
 10
-1.196701
 20
-0.805756
 30
0.0
 10
-1.196697
 20
-0.837738
 30
0.0
  0
SPLINE
  5
117
100
AcDbEntity
  8
Layer_1
 62
7
100
AcDbSpline
 70
8
 71
3
 72
8
 73
4
 74
0
 40
0
 40
0
 40
0
 40
0
 40
1
 40
1
 40
1
 40
1
 10
-1.196697
 20
-0.837738
 30
0.0
 10
-1.196701
 20
-0.869720
 30
0.0
 10
-1.179641
 20
-0.899274
 30
0.0
 10
-1.151944
 20
-0.915266
 30
0.0
  0
SPLINE
  5
118
100
AcDbEntity
  8
Layer_1
 62
7
100
AcDbSpline
 70
8
 71
3
 72
8
 73
4
 74
0
 40
0
 40
0
 40
0
 40
0
 40
1
 40
1
 40
1
 40
1
 10
-1.151944
 20
-0.915266
 30
0.0
 10
-1.124247
 20
-0.931258
 30
0.0
 10
-1.090123
 20
-0.931258
 30
0.0
 10
-1.062426
 20
-0.915266
 30
0.0
  0
SPLINE
  5
119
100
AcDbEntity
  8
Layer_1
 62
7
100
AcDbSpline
 70
8
 71
3
 72
8
 73
4
 74
0
 40
0
 40
0
 40
0
 40
0
 40
1
 40
1
 40
1
 40
1
 10
-1.062426
 20
-0.915266
 30
0.0
 10
-1.034729
 20
-0.899274
 30
0.0
 10
-1.017669
 20
-0.869720
 30
0.0
 10
-1.017673
 20
-0.837738
 30
0.0
  0
LWPOLYLINE
  5
11a
100
AcDbEntity
  8
Layer_1
 62
7
100
AcDbPolyline
 90
1
 70
1
 10
1.959614
 20
-1.054600
 30
0.0
  0
SPLINE
  5
11b
100
AcDbEntity
  8
Layer_1
 62
7
100
AcDbSpline
 70
8
 71
3
 72
8
 73
4
 74
0
 40
0
 40
0
 40
0
 40
0
 40
1
 40
1
 40
1
 40
1
 10
-0.093339
 20
1.415375
 30
0.0
 10
-0.093339
 20
1.447354
 30
0.0
 10
-0.110400
 20
1.476905
 30
0.0
 10
-0.138096
 20
1.492895
 30
0.0
  0
SPLINE
  5
11c
100
AcDbEntity
  8
Layer_1
 62
7
100
AcDbSpline
 70
8
 71
3
 72
8
 73
4
 74
0
 40
0
 40
0
 40
0
 40
0
 40
1
 40
1
 40
1
 40
1
 10
-0.138096
 20
1.492895
 30
0.0
 10
-0.165791
 20
1.508884
 30
0.0
 10
-0.199913
 20
1.508884
 30
0.0
 10
-0.227608
 20
1.492895
 30
0.0
  0
SPLINE
  5
11d
100
AcDbEntity
  8
Layer_1
 62
7
100
AcDbSpline
 70
8
 71
3
 72
8
 73
4
 74
0
 40
0
 40
0
 40
0
 40
0
 40
1
 40
1
 40
1
 40
1
 10
-0.227608
 20
1.492895
 30
0.0
 10
-0.255303
 20
1.476905
 30
0.0
 10
-0.272364
 20
1.447354
 30
0.0
 10
-0.272364
 20
1.415375
 30
0.0
  0
SPLINE
  5
11e
100
AcDbEntity
  8
Layer_1
 62
7
100
AcDbSpline
 70
8
 71
3
 72
8
 73
4
 74
0
 40
0
 40
0
 40
0
 40
0
 40
1
 40
1
 40
1
 40
1
 10
-0.272364
 20
1.415375
 30
0.0
 10
-0.272364
 20
1.383395
 30
0.0
 10
-0.255303
 20
1.353844
 30
0.0
 10
-0.227608
 20
1.337854
 30
0.0
  0
SPLINE
  5
11f
100
AcDbEntity
  8
Layer_1
 62
7
100
AcDbSpline
 70
8
 71
3
 72
8
 73
4
 74
0
 40
0
 40
0
 40
0
 40
0
 40
1
 40
1
 40
1
 40
1
 10
-0.227608
 20
1.337854
 30
0.0
 10
-0.199913
 20
1.321865
 30
0.0
 10
-0.165791
 20
1.321865
 30
0.0
 10
-0.138096
 20
1.337854
 30
0.0
  0
SPLINE
  5
120
100
AcDbEntity
  8
Layer_1
 62
7
100
AcDbSpline
 70
8
 71
3
 72
8
 73
4
 74
0
 40
0
 40
0
 40
0
 40
0
 40
1
 40
1
 40
1
 40
1
 10
-0.138096
 20
1.337854
 30
0.0
 10
-0.110400
 20
1.353844
 30
0.0
 10
-0.093339
 20
1.383395
 30
0.0
 10
-0.093339
 20
1.415375
 30
0.0
  0
LWPOLYLINE
  5
121
100
AcDbEntity
  8
Layer_1
 62
7
100
AcDbPolyline
 90
1
 70
1
 10
-1.017673
 20
-0.837738
 30
0.0
  0
SPLINE
  5
122
100
AcDbEntity
  8
Layer_1
 62
7
100
AcDbSpline
 70
8
 71
3
 72
8
 73
4
 74
0
 40
0
 40
0
 40
0
 40
0
 40
1
 40
1
 40
1
 40
1
 10
1.395746
 20
-0.511678
 30
0.0
 10
1.395746
 20
-0.479699
 30
0.0
 10
1.378685
 20
-0.450148
 30
0.0
 10
1.350990
 20
-0.434158
 30
0.0
  0
SPLINE
  5
123
100
AcDbEntity
  8
Layer_1
 62
7
100
AcDbSpline
 70
8
 71
3
 72
8
 73
4
 74
0
 40
0
 40
0
 40
0
 40
0
 40
1
 40
1
 40
1
 40
1
 10
1.350990
 20
-0.434158
 30
0.0
 10
1.323295
 20
-0.418168
 30
0.0
 10
1.289173
 20
-0.418168
 30
0.0
 10
1.261478
 20
-0.434158
 30
0.0
  0
SPLINE
  5
124
100
AcDbEntity
  8
Layer_1
 62
7
100
AcDbSpline
 70
8
 71
3
 72
8
 73
4
 74
0
 40
0
 40
0
 40
0
 40
0
 40
1
 40
1
 40
1
 40
1
 10
1.261478
 20
-0.434158
 30
0.0
 10
1.233782
 20
-0.450148
 30
0.0
 10
1.216721
 20
-0.479699
 30
0.0
 10
1.216721
 20
-0.511678
 30
0.0
  0
SPLINE
  5
125
100
AcDbEntity
  8
Layer_1
 62
7
100
AcDbSpline
 70
8
 71
3
 72
8
 73
4
 74
0
 40
0
 40
0
 40
0
 40
0
 40
1
 40
1
 40
1
 40
1
 10
1.216721
 20
-0.511678
 30
0.0
 10
1.216721
 20
-0.543658
 30
0.0
 10
1.233782
 20
-0.573208
 30
0.0
 10
1.261478
 20
-0.589198
 30
0.0
  0
SPLINE
  5
126
100
AcDbEntity
  8
Layer_1
 62
7
100
AcDbSpline
 70
8
 71
3
 72
8
 73
4
 74
0
 40
0
 40
0
 40
0
 40
0
 40
1
 40
1
 40
1
 40
1
 10
1.261478
 20
-0.589198
 30
0.0
 10
1.289173
 20
-0.605188
 30
0.0
 10
1.323295
 20
-0.605188
 30
0.0
 10
1.350990
 20
-0.589198
 30
0.0
  0
SPLINE
  5
127
100
AcDbEntity
  8
Layer_1
 62
7
100
AcDbSpline
 70
8
 71
3
 72
8
 73
4
 74
0
 40
0
 40
0
 40
0
 40
0
 40
1
 40
1
 40
1
 40
1
 10
1.350990
 20
-0.589198
 30
0.0
 10
1.378685
 20
-0.573208
 30
0.0
 10
1.395746
 20
-0.543658
 30
0.0
 10
1.395746
 20
-0.511678
 30
0.0
  0
LWPOLYLINE
  5
128
100
AcDbEntity
  8
Layer_1
 62
7
100
AcDbPolyline
 90
1
 70
1
 10
-0.093339
 20
1.415375
 30
0.0
  0
SPLINE
  5
129
100
AcDbEntity
  8
Layer_1
 62
7
100
AcDbSpline
 70
8
 71
3
 72
8
 73
4
 74
0
 40
0
 40
0
 40
0
 40
0
 40
1
 40
1
 40
1
 40
1
 10
-0.026461
 20
-0.828803
 30
0.0
 10
-0.026442
 20
-0.796810
 30
0.0
 10
-0.043499
 20
-0.767240
 30
0.0
 10
-0.071202
 20
-0.751238
 30
0.0
  0
SPLINE
  5
12a
100
AcDbEntity
  8
Layer_1
 62
7
100
AcDbSpline
 70
8
 71
3
 72
8
 73
4
 74
0
 40
0
 40
0
 40
0
 40
0
 40
1
 40
1
 40
1
 40
1
 10
-0.071202
 20
-0.751238
 30
0.0
 10
-0.098905
 20
-0.735237
 30
0.0
 10
-0.133042
 20
-0.735237
 30
0.0
 10
-0.160745
 20
-0.751238
 30
0.0
  0
SPLINE
  5
12b
100
AcDbEntity
  8
Layer_1
 62
7
100
AcDbSpline
 70
8
 71
3
 72
8
 73
4
 74
0
 40
0
 40
0
 40
0
 40
0
 40
1
 40
1
 40
1
 40
1
 10
-0.160745
 20
-0.751238
 30
0.0
 10
-0.188448
 20
-0.767240
 30
0.0
 10
-0.205505
 20
-0.796810
 30
0.0
 10
-0.205486
 20
-0.828803
 30
0.0
  0
SPLINE
  5
12c
100
AcDbEntity
  8
Layer_1
 62
7
100
AcDbSpline
 70
8
 71
3
 72
8
 73
4
 74
0
 40
0
 40
0
 40
0
 40
0
 40
1
 40
1
 40
1
 40
1
 10
-0.205486
 20
-0.828803
 30
0.0
 10
-0.205505
 20
-0.860795
 30
0.0
 10
-0.188448
 20
-0.890365
 30
0.0
 10
-0.160745
 20
-0.906367
 30
0.0
  0
SPLINE
  5
12d
100
AcDbEntity
  8
Layer_1
 62
7
100
AcDbSpline
 70
8
 71
3
 72
8
 73
4
 74
0
 40
0
 40
0
 40
0
 40
0
 40
1
 40
1
 40
1
 40
1
 10
-0.160745
 20
-0.906367
 30
0.0
 10
-0.133042
 20
-0.922369
 30
0.0
 10
-0.098905
 20
-0.922369
 30
0.0
 10
-0.071202
 20
-0.906367
 30
0.0
  0
SPLINE
  5
12e
100
AcDbEntity
  8
Layer_1
 62
7
100
AcDbSpline
 70
8
 71
3
 72
8
 73
4
 74
0
 40
0
 40
0
 40
0
 40
0
 40
1
 40
1
 40
1
 40
1
 10
-0.071202
 20
-0.906367
 30
0.0
 10
-0.043499
 20
-0.890365
 30
0.0
 10
-0.026442
 20
-0.860795
 30
0.0
 10
-0.026461
 20
-0.828803
 30
0.0
  0
LWPOLYLINE
  5
12f
100
AcDbEntity
  8
Layer_1
 62
7
100
AcDbPolyline
 90
1
 70
1
 10
1.395746
 20
-0.511678
 30
0.0
  0
SPLINE
  5
130
100
AcDbEntity
  8
Layer_1
 62
7
100
AcDbSpline
 70
8
 71
3
 72
8
 73
4
 74
0
 40
0
 40
0
 40
0
 40
0
 40
1
 40
1
 40
1
 40
1
 10
-0.181219
 20
0.272318
 30
0.0
 10
-0.181219
 20
0.304298
 30
0.0
 10
-0.198280
 20
0.333849
 30
0.0
 10
-0.225975
 20
0.349838
 30
0.0
  0
SPLINE
  5
131
100
AcDbEntity
  8
Layer_1
 62
7
100
AcDbSpline
 70
8
 71
3
 72
8
 73
4
 74
0
 40
0
 40
0
 40
0
 40
0
 40
1
 40
1
 40
1
 40
1
 10
-0.225975
 20
0.349838
 30
0.0
 10
-0.253670
 20
0.365828
 30
0.0
 10
-0.287792
 20
0.365828
 30
0.0
 10
-0.315488
 20
0.349838
 30
0.0
  0
SPLINE
  5
132
100
AcDbEntity
  8
Layer_1
 62
7
100
AcDbSpline
 70
8
 71
3
 72
8
 73
4
 74
0
 40
0
 40
0
 40
0
 40
0
 40
1
 40
1
 40
1
 40
1
 10
-0.315488
 20
0.349838
 30
0.0
 10
-0.343183
 20
0.333849
 30
0.0
 10
-0.360244
 20
0.304298
 30
0.0
 10
-0.360244
 20
0.272318
 30
0.0
  0
SPLINE
  5
133
100
AcDbEntity
  8
Layer_1
 62
7
100
AcDbSpline
 70
8
 71
3
 72
8
 73
4
 74
0
 40
0
 40
0
 40
0
 40
0
 40
1
 40
1
 40
1
 40
1
 10
-0.360244
 20
0.272318
 30
0.0
 10
-0.360244
 20
0.240339
 30
0.0
 10
-0.343183
 20
0.210788
 30
0.0
 10
-0.315488
 20
0.194798
 30
0.0
  0
SPLINE
  5
134
100
AcDbEntity
  8
Layer_1
 62
7
100
AcDbSpline
 70
8
 71
3
 72
8
 73
4
 74
0
 40
0
 40
0
 40
0
 40
0
 40
1
 40
1
 40
1
 40
1
 10
-0.315488
 20
0.194798
 30
0.0
 10
-0.287792
 20
0.178808
 30
0.0
 10
-0.253670
 20
0.178808
 30
0.0
 10
-0.225975
 20
0.194798
 30
0.0
  0
SPLINE
  5
135
100
AcDbEntity
  8
Layer_1
 62
7
100
AcDbSpline
 70
8
 71
3
 72
8
 73
4
 74
0
 40
0
 40
0
 40
0
 40
0
 40
1
 40
1
 40
1
 40
1
 10
-0.225975
 20
0.194798
 30
0.0
 10
-0.198280
 20
0.210788
 30
0.0
 10
-0.181219
 20
0.240339
 30
0.0
 10
-0.181219
 20
0.272318
 30
0.0
  0
LWPOLYLINE
  5
136
100
AcDbEntity
  8
Layer_1
 62
7
100
AcDbPolyline
 90
1
 70
1
 10
-0.026461
 20
-0.828803
 30
0.0
  0
LWPOLYLINE
  5
137
100
AcDbEntity
  8
Layer_1
 62
7
100
AcDbPolyline
 90
1
 70
1
 10
-0.181219
 20
0.272318
 30
0.0
  0
LWPOLYLINE
  5
138
100
AcDbEntity
  8
Layer_1
 62
7
100
AcDbPolyline
 90
2
 70
0
 10
1.067618
 20
0.197293
 30
0.0
 10
1.295192
 20
-0.196877
 30
0.0
  0
LWPOLYLINE
  5
139
100
AcDbEntity
  8
Layer_1
 62
7
100
AcDbPolyline
 90
2
 70
0
 10
1.364275
 20
-0.215388
 30
0.0
 10
1.451868
 20
-0.164816
 30
0.0
  0
LWPOLYLINE
  5
13a
100
AcDbEntity
  8
Layer_1
 62
7
100
AcDbPolyline
 90
2
 70
0
 10
1.786454
 20
-0.643192
 30
0.0
 10
1.520951
 20
-0.183327
 30
0.0
  0
LWPOLYLINE
  5
13b
100
AcDbEntity
  8
Layer_1
 62
7
100
AcDbPolyline
 90
2
 70
0
 10
2.039482
 20
-0.555501
 30
0.0
 10
1.855537
 20
-0.661702
 30
0.0
  0
LWPOLYLINE
  5
13c
100
AcDbEntity
  8
Layer_1
 62
7
100
AcDbPolyline
 90
2
 70
0
 10
2.223484
 20
-0.874202
 30
0.0
 10
2.039482
 20
-0.555501
 30
0.0
  0
LWPOLYLINE
  5
13d
100
AcDbEntity
  8
Layer_1
 62
7
100
AcDbPolyline
 90
2
 70
0
 10
1.890563
 20
-1.450838
 30
0.0
 10
2.223484
 20
-0.874202
 30
0.0
  0
LWPOLYLINE
  5
13e
100
AcDbEntity
  8
Layer_1
 62
7
100
AcDbPolyline
 90
2
 70
0
 10
1.522559
 20
-1.450838
 30
0.0
 10
1.890563
 20
-1.450838
 30
0.0
  0
LWPOLYLINE
  5
13f
100
AcDbEntity
  8
Layer_1
 62
7
100
AcDbPolyline
 90
2
 70
0
 10
1.522559
 20
-1.450838
 30
0.0
 10
1.522559
 20
-1.238436
 30
0.0
  0
LWPOLYLINE
  5
140
100
AcDbEntity
  8
Layer_1
 62
7
100
AcDbPolyline
 90
2
 70
0
 10
-0.272747
 20
-1.187864
 30
0.0
 10
1.471987
 20
-1.187864
 30
0.0
  0
LWPOLYLINE
  5
141
100
AcDbEntity
  8
Layer_1
 62
7
100
AcDbPolyline
 90
2
 70
0
 10
-0.323319
 20
-1.137292
 30
0.0
 10
-0.323319
 20
-1.036148
 30
0.0
  0
LWPOLYLINE
  5
142
100
AcDbEntity
  8
Layer_1
 62
7
100
AcDbPolyline
 90
2
 70
0
 10
-0.373891
 20
-0.985576
 30
0.0
 10
-0.829039
 20
-0.985576
 30
0.0
  0
LWPOLYLINE
  5
143
100
AcDbEntity
  8
Layer_1
 62
7
100
AcDbPolyline
 90
2
 70
0
 10
-0.879611
 20
-1.036148
 30
0.0
 10
-0.879611
 20
-1.137292
 30
0.0
  0
LWPOLYLINE
  5
144
100
AcDbEntity
  8
Layer_1
 62
7
100
AcDbPolyline
 90
2
 70
0
 10
-1.461189
 20
-1.187864
 30
0.0
 10
-0.930183
 20
-1.187864
 30
0.0
  0
LWPOLYLINE
  5
145
100
AcDbEntity
  8
Layer_1
 62
7
100
AcDbPolyline
 90
2
 70
0
 10
-1.511761
 20
-1.450838
 30
0.0
 10
-1.511761
 20
-1.238436
 30
0.0
  0
LWPOLYLINE
  5
146
100
AcDbEntity
  8
Layer_1
 62
7
100
AcDbPolyline
 90
2
 70
0
 10
-1.879765
 20
-1.450838
 30
0.0
 10
-1.511761
 20
-1.450838
 30
0.0
  0
LWPOLYLINE
  5
147
100
AcDbEntity
  8
Layer_1
 62
7
100
AcDbPolyline
 90
2
 70
0
 10
-2.212686
 20
-0.874202
 30
0.0
 10
-1.879765
 20
-1.450838
 30
0.0
  0
LWPOLYLINE
  5
148
100
AcDbEntity
  8
Layer_1
 62
7
100
AcDbPolyline
 90
2
 70
0
 10
-2.028684
 20
-0.555501
 30
0.0
 10
-2.212686
 20
-0.874202
 30
0.0
  0
LWPOLYLINE
  5
149
100
AcDbEntity
  8
Layer_1
 62
7
100
AcDbPolyline
 90
2
 70
0
 10
-2.028684
 20
-0.555501
 30
0.0
 10
-1.844739
 20
-0.661702
 30
0.0
  0
LWPOLYLINE
  5
14a
100
AcDbEntity
  8
Layer_1
 62
7
100
AcDbPolyline
 90
2
 70
0
 10
-0.903289
 20
0.867794
 30
0.0
 10
-1.775656
 20
-0.643192
 30
0.0
  0
LWPOLYLINE
  5
14b
100
AcDbEntity
  8
Layer_1
 62
7
100
AcDbPolyline
 90
2
 70
0
 10
-0.834206
 20
0.886304
 30
0.0
 10
-0.746613
 20
0.835732
 30
0.0
  0
LWPOLYLINE
  5
14c
100
AcDbEntity
  8
Layer_1
 62
7
100
AcDbPolyline
 90
2
 70
0
 10
-0.677530
 20
0.854242
 30
0.0
 10
-0.449956
 20
1.248412
 30
0.0
  0
LWPOLYLINE
  5
14d
100
AcDbEntity
  8
Layer_1
 62
7
100
AcDbPolyline
 90
2
 70
0
 10
-0.468467
 20
1.317495
 30
0.0
 10
-0.556060
 20
1.368067
 30
0.0
  0
LWPOLYLINE
  5
14e
100
AcDbEntity
  8
Layer_1
 62
7
100
AcDbPolyline
 90
2
 70
0
 10
-0.309068
 20
1.897014
 30
0.0
 10
-0.574571
 20
1.437149
 30
0.0
  0
LWPOLYLINE
  5
14f
100
AcDbEntity
  8
Layer_1
 62
7
100
AcDbPolyline
 90
2
 70
0
 10
-0.511524
 20
2.072298
 30
0.0
 10
-0.327579
 20
1.966097
 30
0.0
  0
LWPOLYLINE
  5
150
100
AcDbEntity
  8
Layer_1
 62
7
100
AcDbPolyline
 90
2
 70
0
 10
-0.327522
 20
2.390999
 30
0.0
 10
-0.511524
 20
2.072298
 30
0.0
  0
LWPOLYLINE
  5
151
100
AcDbEntity
  8
Layer_1
 62
7
100
AcDbPolyline
 90
2
 70
0
 10
0.338320
 20
2.390999
 30
0.0
 10
-0.327522
 20
2.390999
 30
0.0
  0
LWPOLYLINE
  5
152
100
AcDbEntity
  8
Layer_1
 62
7
100
AcDbPolyline
 90
2
 70
0
 10
0.522322
 20
2.072298
 30
0.0
 10
0.338320
 20
2.390999
 30
0.0
  0
LWPOLYLINE
  5
153
100
AcDbEntity
  8
Layer_1
 62
7
100
AcDbPolyline
 90
2
 70
0
 10
0.522322
 20
2.072298
 30
0.0
 10
0.338377
 20
1.966097
 30
0.0
  0
LWPOLYLINE
  5
154
100
AcDbEntity
  8
Layer_1
 62
7
100
AcDbPolyline
 90
2
 70
0
 10
1.192233
 20
0.386030
 30
0.0
 10
0.319866
 20
1.897014
 30
0.0
  0
SPLINE
  5
155
100
AcDbEntity
  8
Layer_1
 62
7
100
AcDbSpline
 70
8
 71
3
 72
8
 73
4
 74
0
 40
0
 40
0
 40
0
 40
0
 40
1
 40
1
 40
1
 40
1
 10
1.086129
 20
0.266375
 30
0.0
 10
1.061941
 20
0.252410
 30
0.0
 10
1.053654
 20
0.221481
 30
0.0
 10
1.067618
 20
0.197293
 30
0.0
  0
SPLINE
  5
156
100
AcDbEntity
  8
Layer_1
 62
7
100
AcDbSpline
 70
8
 71
3
 72
8
 73
4
 74
0
 40
0
 40
0
 40
0
 40
0
 40
1
 40
1
 40
1
 40
1
 10
1.295192
 20
-0.196877
 30
0.0
 10
1.301899
 20
-0.208493
 30
0.0
 10
1.312944
 20
-0.216969
 30
0.0
 10
1.325900
 20
-0.220440
 30
0.0
  0
SPLINE
  5
157
100
AcDbEntity
  8
Layer_1
 62
7
100
AcDbSpline
 70
8
 71
3
 72
8
 73
4
 74
0
 40
0
 40
0
 40
0
 40
0
 40
1
 40
1
 40
1
 40
1
 10
1.325900
 20
-0.220440
 30
0.0
 10
1.338855
 20
-0.223912
 30
0.0
 10
1.352659
 20
-0.222095
 30
0.0
 10
1.364275
 20
-0.215388
 30
0.0
  0
SPLINE
  5
158
100
AcDbEntity
  8
Layer_1
 62
7
100
AcDbSpline
 70
8
 71
3
 72
8
 73
4
 74
0
 40
0
 40
0
 40
0
 40
0
 40
1
 40
1
 40
1
 40
1
 10
1.520951
 20
-0.183327
 30
0.0
 10
1.506986
 20
-0.159139
 30
0.0
 10
1.476056
 20
-0.150851
 30
0.0
 10
1.451868
 20
-0.164816
 30
0.0
  0
SPLINE
  5
159
100
AcDbEntity
  8
Layer_1
 62
7
100
AcDbSpline
 70
8
 71
3
 72
8
 73
4
 74
0
 40
0
 40
0
 40
0
 40
0
 40
1
 40
1
 40
1
 40
1
 10
1.786454
 20
-0.643192
 30
0.0
 10
1.793160
 20
-0.654807
 30
0.0
 10
1.804206
 20
-0.663283
 30
0.0
 10
1.817162
 20
-0.666754
 30
0.0
  0
SPLINE
  5
15a
100
AcDbEntity
  8
Layer_1
 62
7
100
AcDbSpline
 70
8
 71
3
 72
8
 73
4
 74
0
 40
0
 40
0
 40
0
 40
0
 40
1
 40
1
 40
1
 40
1
 10
1.817162
 20
-0.666754
 30
0.0
 10
1.830117
 20
-0.670226
 30
0.0
 10
1.843921
 20
-0.668408
 30
0.0
 10
1.855537
 20
-0.661702
 30
0.0
  0
SPLINE
  5
15b
100
AcDbEntity
  8
Layer_1
 62
7
100
AcDbSpline
 70
8
 71
3
 72
8
 73
4
 74
0
 40
0
 40
0
 40
0
 40
0
 40
1
 40
1
 40
1
 40
1
 10
1.522559
 20
-1.238436
 30
0.0
 10
1.522559
 20
-1.225023
 30
0.0
 10
1.517231
 20
-1.212160
 30
0.0
 10
1.507747
 20
-1.202676
 30
0.0
  0
SPLINE
  5
15c
100
AcDbEntity
  8
Layer_1
 62
7
100
AcDbSpline
 70
8
 71
3
 72
8
 73
4
 74
0
 40
0
 40
0
 40
0
 40
0
 40
1
 40
1
 40
1
 40
1
 10
1.507747
 20
-1.202676
 30
0.0
 10
1.498263
 20
-1.193192
 30
0.0
 10
1.485400
 20
-1.187864
 30
0.0
 10
1.471987
 20
-1.187864
 30
0.0
  0
SPLINE
  5
15d
100
AcDbEntity
  8
Layer_1
 62
7
100
AcDbSpline
 70
8
 71
3
 72
8
 73
4
 74
0
 40
0
 40
0
 40
0
 40
0
 40
1
 40
1
 40
1
 40
1
 10
-0.323319
 20
-1.137292
 30
0.0
 10
-0.323319
 20
-1.150704
 30
0.0
 10
-0.317991
 20
-1.163568
 30
0.0
 10
-0.308507
 20
-1.173052
 30
0.0
  0
SPLINE
  5
15e
100
AcDbEntity
  8
Layer_1
 62
7
100
AcDbSpline
 70
8
 71
3
 72
8
 73
4
 74
0
 40
0
 40
0
 40
0
 40
0
 40
1
 40
1
 40
1
 40
1
 10
-0.308507
 20
-1.173052
 30
0.0
 10
-0.299023
 20
-1.182536
 30
0.0
 10
-0.286159
 20
-1.187864
 30
0.0
 10
-0.272747
 20
-1.187864
 30
0.0
  0
SPLINE
  5
15f
100
AcDbEntity
  8
Layer_1
 62
7
100
AcDbSpline
 70
8
 71
3
 72
8
 73
4
 74
0
 40
0
 40
0
 40
0
 40
0
 40
1
 40
1
 40
1
 40
1
 10
-0.323319
 20
-1.036148
 30
0.0
 10
-0.323319
 20
-1.022735
 30
0.0
 10
-0.328647
 20
-1.009872
 30
0.0
 10
-0.338131
 20
-1.000388
 30
0.0
  0
SPLINE
  5
160
100
AcDbEntity
  8
Layer_1
 62
7
100
AcDbSpline
 70
8
 71
3
 72
8
 73
4
 74
0
 40
0
 40
0
 40
0
 40
0
 40
1
 40
1
 40
1
 40
1
 10
-0.338131
 20
-1.000388
 30
0.0
 10
-0.347615
 20
-0.990904
 30
0.0
 10
-0.360478
 20
-0.985576
 30
0.0
 10
-0.373891
 20
-0.985576
 30
0.0
  0
SPLINE
  5
161
100
AcDbEntity
  8
Layer_1
 62
7
100
AcDbSpline
 70
8
 71
3
 72
8
 73
4
 74
0
 40
0
 40
0
 40
0
 40
0
 40
1
 40
1
 40
1
 40
1
 10
-0.829039
 20
-0.985576
 30
0.0
 10
-0.842451
 20
-0.985576
 30
0.0
 10
-0.855315
 20
-0.990904
 30
0.0
 10
-0.864799
 20
-1.000388
 30
0.0
  0
SPLINE
  5
162
100
AcDbEntity
  8
Layer_1
 62
7
100
AcDbSpline
 70
8
 71
3
 72
8
 73
4
 74
0
 40
0
 40
0
 40
0
 40
0
 40
1
 40
1
 40
1
 40
1
 10
-0.864799
 20
-1.000388
 30
0.0
 10
-0.874283
 20
-1.009872
 30
0.0
 10
-0.879611
 20
-1.022735
 30
0.0
 10
-0.879611
 20
-1.036148
 30
0.0
  0
SPLINE
  5
163
100
AcDbEntity
  8
Layer_1
 62
7
100
AcDbSpline
 70
8
 71
3
 72
8
 73
4
 74
0
 40
0
 40
0
 40
0
 40
0
 40
1
 40
1
 40
1
 40
1
 10
-0.930183
 20
-1.187864
 30
0.0
 10
-0.916770
 20
-1.187864
 30
0.0
 10
-0.903907
 20
-1.182536
 30
0.0
 10
-0.894423
 20
-1.173052
 30
0.0
  0
SPLINE
  5
164
100
AcDbEntity
  8
Layer_1
 62
7
100
AcDbSpline
 70
8
 71
3
 72
8
 73
4
 74
0
 40
0
 40
0
 40
0
 40
0
 40
1
 40
1
 40
1
 40
1
 10
-0.894423
 20
-1.173052
 30
0.0
 10
-0.884939
 20
-1.163568
 30
0.0
 10
-0.879611
 20
-1.150704
 30
0.0
 10
-0.879611
 20
-1.137292
 30
0.0
  0
SPLINE
  5
165
100
AcDbEntity
  8
Layer_1
 62
7
100
AcDbSpline
 70
8
 71
3
 72
8
 73
4
 74
0
 40
0
 40
0
 40
0
 40
0
 40
1
 40
1
 40
1
 40
1
 10
-1.461189
 20
-1.187864
 30
0.0
 10
-1.474601
 20
-1.187864
 30
0.0
 10
-1.487465
 20
-1.193192
 30
0.0
 10
-1.496949
 20
-1.202676
 30
0.0
  0
SPLINE
  5
166
100
AcDbEntity
  8
Layer_1
 62
7
100
AcDbSpline
 70
8
 71
3
 72
8
 73
4
 74
0
 40
0
 40
0
 40
0
 40
0
 40
1
 40
1
 40
1
 40
1
 10
-1.496949
 20
-1.202676
 30
0.0
 10
-1.506433
 20
-1.212160
 30
0.0
 10
-1.511761
 20
-1.225023
 30
0.0
 10
-1.511761
 20
-1.238436
 30
0.0
  0
SPLINE
  5
167
100
AcDbEntity
  8
Layer_1
 62
7
100
AcDbSpline
 70
8
 71
3
 72
8
 73
4
 74
0
 40
0
 40
0
 40
0
 40
0
 40
1
 40
1
 40
1
 40
1
 10
-1.844739
 20
-0.661702
 30
0.0
 10
-1.833123
 20
-0.668408
 30
0.0
 10
-1.819319
 20
-0.670226
 30
0.0
 10
-1.806364
 20
-0.666754
 30
0.0
  0
SPLINE
  5
168
100
AcDbEntity
  8
Layer_1
 62
7
100
AcDbSpline
 70
8
 71
3
 72
8
 73
4
 74
0
 40
0
 40
0
 40
0
 40
0
 40
1
 40
1
 40
1
 40
1
 10
-1.806364
 20
-0.666754
 30
0.0
 10
-1.793408
 20
-0.663283
 30
0.0
 10
-1.782362
 20
-0.654807
 30
0.0
 10
-1.775656
 20
-0.643192
 30
0.0
  0
SPLINE
  5
169
100
AcDbEntity
  8
Layer_1
 62
7
100
AcDbSpline
 70
8
 71
3
 72
8
 73
4
 74
0
 40
0
 40
0
 40
0
 40
0
 40
1
 40
1
 40
1
 40
1
 10
-0.834206
 20
0.886304
 30
0.0
 10
-0.858394
 20
0.900269
 30
0.0
 10
-0.889324
 20
0.891982
 30
0.0
 10
-0.903289
 20
0.867794
 30
0.0
  0
SPLINE
  5
16a
100
AcDbEntity
  8
Layer_1
 62
7
100
AcDbSpline
 70
8
 71
3
 72
8
 73
4
 74
0
 40
0
 40
0
 40
0
 40
0
 40
1
 40
1
 40
1
 40
1
 10
-0.746613
 20
0.835732
 30
0.0
 10
-0.722425
 20
0.821767
 30
0.0
 10
-0.691496
 20
0.830054
 30
0.0
 10
-0.677530
 20
0.854242
 30
0.0
  0
SPLINE
  5
16b
100
AcDbEntity
  8
Layer_1
 62
7
100
AcDbSpline
 70
8
 71
3
 72
8
 73
4
 74
0
 40
0
 40
0
 40
0
 40
0
 40
1
 40
1
 40
1
 40
1
 10
-0.449956
 20
1.248412
 30
0.0
 10
-0.435991
 20
1.272600
 30
0.0
 10
-0.444279
 20
1.303530
 30
0.0
 10
-0.468467
 20
1.317495
 30
0.0
  0
SPLINE
  5
16c
100
AcDbEntity
  8
Layer_1
 62
7
100
AcDbSpline
 70
8
 71
3
 72
8
 73
4
 74
0
 40
0
 40
0
 40
0
 40
0
 40
1
 40
1
 40
1
 40
1
 10
-0.574571
 20
1.437149
 30
0.0
 10
-0.588536
 20
1.412961
 30
0.0
 10
-0.580248
 20
1.382032
 30
0.0
 10
-0.556060
 20
1.368067
 30
0.0
  0
SPLINE
  5
16d
100
AcDbEntity
  8
Layer_1
 62
7
100
AcDbSpline
 70
8
 71
3
 72
8
 73
4
 74
0
 40
0
 40
0
 40
0
 40
0
 40
1
 40
1
 40
1
 40
1
 10
-0.309068
 20
1.897014
 30
0.0
 10
-0.295103
 20
1.921202
 30
0.0
 10
-0.303390
 20
1.952132
 30
0.0
 10
-0.327579
 20
1.966097
 30
0.0
  0
SPLINE
  5
16e
100
AcDbEntity
  8
Layer_1
 62
7
100
AcDbSpline
 70
8
 71
3
 72
8
 73
4
 74
0
 40
0
 40
0
 40
0
 40
0
 40
1
 40
1
 40
1
 40
1
 10
0.338377
 20
1.966097
 30
0.0
 10
0.314188
 20
1.952132
 30
0.0
 10
0.305901
 20
1.921202
 30
0.0
 10
0.319866
 20
1.897014
 30
0.0
  0
SPLINE
  5
16f
100
AcDbEntity
  8
Layer_1
 62
7
100
AcDbSpline
 70
8
 71
3
 72
8
 73
4
 74
0
 40
0
 40
0
 40
0
 40
0
 40
1
 40
1
 40
1
 40
1
 10
1.173722
 20
0.316947
 30
0.0
 10
1.197910
 20
0.330912
 30
0.0
 10
1.206198
 20
0.361841
 30
0.0
 10
1.192233
 20
0.386030
 30
0.0
  0
LWPOLYLINE
  5
170
100
AcDbEntity
  8
Layer_1
 62
7
100
AcDbPolyline
 90
2
 70
0
 10
1.173722
 20
0.316947
 30
0.0
 10
1.086129
 20
0.266375
 30
0.0
  0
ENDSEC
  0
SECTION
  2
OBJECTS
  0
DICTIONARY
  5
C
330
0
100
AcDbDictionary
  3
ACAD_GROUP
350
D
  3
ACAD_MLINESTYLE
350
17
  0
DICTIONARY
  5
D
330
C
100
AcDbDictionary
  0
DICTIONARY
  5
1A
330
C
100
AcDbDictionary
  0
DICTIONARY
  5
17
330
C
100
AcDbDictionary
  3
STANDARD
350
18
  0
DICTIONARY
  5
19
330
C
100
AcDbDictionary
  0
ENDSEC
  0
EOF
